%FSLAX46Y46*%
G04 Gerber Fmt 4.6, Leading zero omitted, Abs format (unit mm)*
G04 Created by KiCad (PCBNEW (2014-jul-16 BZR unknown)-product) date Thu 26 Feb 2015 11:02:22 PM EST*
%MOMM*%
G01*
G04 APERTURE LIST*
%ADD10C,0.100000*%
%ADD11C,1.500000*%
%ADD12C,1.651000*%
%ADD13R,3.810000X1.651000*%
%ADD14R,1.727200X2.032000*%
%ADD15O,1.727200X2.032000*%
%ADD16C,0.889000*%
%ADD17C,0.762000*%
%ADD18C,0.254000*%
G04 APERTURE END LIST*
D10*
D11*
X166370000Y-83820000D03*
X166370000Y-71120000D03*
D12*
X142494000Y-86233000D03*
X142494000Y-68707000D03*
D13*
X190754000Y-79883000D03*
X190754000Y-77343000D03*
X190754000Y-74803000D03*
D12*
X169164000Y-69850000D03*
X169164000Y-85090000D03*
D14*
X178308000Y-70612000D03*
D15*
X180848000Y-70612000D03*
X183388000Y-70612000D03*
X185928000Y-70612000D03*
X188468000Y-70612000D03*
X191008000Y-70612000D03*
D16*
X190754000Y-84455000D03*
X187960000Y-79375000D03*
X185547000Y-77343000D03*
X188976000Y-81788000D03*
X166751000Y-76454000D03*
X166116000Y-78359000D03*
X176784000Y-73533000D03*
X186563000Y-73279000D03*
X185547000Y-74041000D03*
X179832000Y-76073000D03*
X186563000Y-80137000D03*
X170815000Y-81407000D03*
X179451000Y-81407000D03*
X179832000Y-78740000D03*
X178054000Y-74549000D03*
X187579000Y-74803000D03*
D17*
X190754000Y-79883000D02*
X190754000Y-84455000D01*
D18*
X187960000Y-79375000D02*
X188468000Y-79883000D01*
X188468000Y-79883000D02*
X190754000Y-79883000D01*
X186563000Y-73279000D02*
X185928000Y-72644000D01*
X185928000Y-72644000D02*
X185928000Y-70612000D01*
X185547000Y-74041000D02*
X182118000Y-74041000D01*
X180086000Y-76073000D02*
X182118000Y-74041000D01*
X179832000Y-76073000D02*
X180086000Y-76073000D01*
X190754000Y-77343000D02*
X189611000Y-77343000D01*
X190754000Y-77343000D02*
X189611000Y-77343000D01*
X186944000Y-77978000D02*
X187579000Y-77343000D01*
X186944000Y-79756000D02*
X186944000Y-78232000D01*
X186563000Y-80137000D02*
X186944000Y-79756000D01*
X190754000Y-77343000D02*
X187579000Y-77343000D01*
X186944000Y-78232000D02*
X186944000Y-77978000D01*
X177800000Y-81407000D02*
X170815000Y-81407000D01*
X179451000Y-81407000D02*
X177800000Y-81407000D01*
X178054000Y-74549000D02*
X178054000Y-78105000D01*
X178054000Y-78105000D02*
X178689000Y-78740000D01*
X178689000Y-78740000D02*
X179832000Y-78740000D01*
D17*
X187579000Y-74803000D02*
X190754000Y-74803000D01*
D18*
G36*
X192355000Y-73342500D02*
X188722691Y-73342500D01*
X188489302Y-73439173D01*
X188310673Y-73617801D01*
X188240588Y-73787000D01*
X187947141Y-73787000D01*
X187794668Y-73723687D01*
X187547304Y-73723471D01*
X187642313Y-73494668D01*
X187642687Y-73065216D01*
X187478689Y-72668311D01*
X187175286Y-72364378D01*
X186778668Y-72199687D01*
X186690000Y-72199609D01*
X186690000Y-72055311D01*
X186987670Y-71856415D01*
X187198000Y-71541634D01*
X187408330Y-71856415D01*
X187894511Y-72181271D01*
X188468000Y-72295345D01*
X189041489Y-72181271D01*
X189527670Y-71856415D01*
X189734460Y-71546930D01*
X190105964Y-71962732D01*
X190633209Y-72216709D01*
X190648974Y-72219358D01*
X190881000Y-72098217D01*
X190881000Y-70739000D01*
X190861000Y-70739000D01*
X190861000Y-70485000D01*
X190881000Y-70485000D01*
X190881000Y-70465000D01*
X191135000Y-70465000D01*
X191135000Y-70485000D01*
X191155000Y-70485000D01*
X191155000Y-70739000D01*
X191135000Y-70739000D01*
X191135000Y-72098217D01*
X191367026Y-72219358D01*
X191382791Y-72216709D01*
X191910036Y-71962732D01*
X192299954Y-71526320D01*
X192355000Y-71368954D01*
X192355000Y-73342500D01*
X192355000Y-73342500D01*
G37*
X192355000Y-73342500D02*
X188722691Y-73342500D01*
X188489302Y-73439173D01*
X188310673Y-73617801D01*
X188240588Y-73787000D01*
X187947141Y-73787000D01*
X187794668Y-73723687D01*
X187547304Y-73723471D01*
X187642313Y-73494668D01*
X187642687Y-73065216D01*
X187478689Y-72668311D01*
X187175286Y-72364378D01*
X186778668Y-72199687D01*
X186690000Y-72199609D01*
X186690000Y-72055311D01*
X186987670Y-71856415D01*
X187198000Y-71541634D01*
X187408330Y-71856415D01*
X187894511Y-72181271D01*
X188468000Y-72295345D01*
X189041489Y-72181271D01*
X189527670Y-71856415D01*
X189734460Y-71546930D01*
X190105964Y-71962732D01*
X190633209Y-72216709D01*
X190648974Y-72219358D01*
X190881000Y-72098217D01*
X190881000Y-70739000D01*
X190861000Y-70739000D01*
X190861000Y-70485000D01*
X190881000Y-70485000D01*
X190881000Y-70465000D01*
X191135000Y-70465000D01*
X191135000Y-70485000D01*
X191155000Y-70485000D01*
X191155000Y-70739000D01*
X191135000Y-70739000D01*
X191135000Y-72098217D01*
X191367026Y-72219358D01*
X191382791Y-72216709D01*
X191910036Y-71962732D01*
X192299954Y-71526320D01*
X192355000Y-71368954D01*
X192355000Y-73342500D01*
G36*
X192355000Y-85675000D02*
X180530687Y-85675000D01*
X180530687Y-81193216D01*
X180366689Y-80796311D01*
X180063286Y-80492378D01*
X179666668Y-80327687D01*
X179237216Y-80327313D01*
X178840311Y-80491311D01*
X178686353Y-80645000D01*
X177800000Y-80645000D01*
X171579641Y-80645000D01*
X171427286Y-80492378D01*
X171030668Y-80327687D01*
X170601216Y-80327313D01*
X170204311Y-80491311D01*
X169900378Y-80794714D01*
X169735687Y-81191332D01*
X169735313Y-81620784D01*
X169899311Y-82017689D01*
X170202714Y-82321622D01*
X170599332Y-82486313D01*
X171028784Y-82486687D01*
X171425689Y-82322689D01*
X171579646Y-82169000D01*
X177800000Y-82169000D01*
X178686358Y-82169000D01*
X178838714Y-82321622D01*
X179235332Y-82486313D01*
X179664784Y-82486687D01*
X180061689Y-82322689D01*
X180365622Y-82019286D01*
X180530313Y-81622668D01*
X180530687Y-81193216D01*
X180530687Y-85675000D01*
X170502493Y-85675000D01*
X170624246Y-85381786D01*
X170624753Y-84800763D01*
X170402874Y-84263774D01*
X169992387Y-83852570D01*
X169455786Y-83629754D01*
X168874763Y-83629247D01*
X168337774Y-83851126D01*
X167926570Y-84261613D01*
X167767201Y-84645416D01*
X167767201Y-71324829D01*
X167739230Y-70774552D01*
X167582460Y-70396077D01*
X167341517Y-70328088D01*
X167161912Y-70507693D01*
X167161912Y-70148483D01*
X167093923Y-69907540D01*
X166574829Y-69722799D01*
X166024552Y-69750770D01*
X165646077Y-69907540D01*
X165578088Y-70148483D01*
X166370000Y-70940395D01*
X167161912Y-70148483D01*
X167161912Y-70507693D01*
X166549605Y-71120000D01*
X167341517Y-71911912D01*
X167582460Y-71843923D01*
X167767201Y-71324829D01*
X167767201Y-84645416D01*
X167755240Y-84674221D01*
X167755240Y-83545715D01*
X167544831Y-83036485D01*
X167161912Y-82652898D01*
X167161912Y-72091517D01*
X166370000Y-71299605D01*
X166190395Y-71479210D01*
X166190395Y-71120000D01*
X165398483Y-70328088D01*
X165157540Y-70396077D01*
X164972799Y-70915171D01*
X165000770Y-71465448D01*
X165157540Y-71843923D01*
X165398483Y-71911912D01*
X166190395Y-71120000D01*
X166190395Y-71479210D01*
X165578088Y-72091517D01*
X165646077Y-72332460D01*
X166165171Y-72517201D01*
X166715448Y-72489230D01*
X167093923Y-72332460D01*
X167161912Y-72091517D01*
X167161912Y-82652898D01*
X167155564Y-82646539D01*
X166646702Y-82435241D01*
X166095715Y-82434760D01*
X165586485Y-82645169D01*
X165196539Y-83034436D01*
X164985241Y-83543298D01*
X164984760Y-84094285D01*
X165195169Y-84603515D01*
X165584436Y-84993461D01*
X166093298Y-85204759D01*
X166644285Y-85205240D01*
X167153515Y-84994831D01*
X167543461Y-84605564D01*
X167754759Y-84096702D01*
X167755240Y-83545715D01*
X167755240Y-84674221D01*
X167703754Y-84798214D01*
X167703247Y-85379237D01*
X167825453Y-85675000D01*
X144242202Y-85675000D01*
X144045285Y-85198422D01*
X143531284Y-84683523D01*
X142859367Y-84404518D01*
X142131825Y-84403884D01*
X141459422Y-84681715D01*
X140944523Y-85195716D01*
X140745506Y-85675000D01*
X117525000Y-85675000D01*
X117525000Y-69265000D01*
X140745797Y-69265000D01*
X140942715Y-69741578D01*
X141456716Y-70256477D01*
X142128633Y-70535482D01*
X142856175Y-70536116D01*
X143528578Y-70258285D01*
X144043477Y-69744284D01*
X144242493Y-69265000D01*
X167825506Y-69265000D01*
X167703754Y-69558214D01*
X167703247Y-70139237D01*
X167925126Y-70676226D01*
X168335613Y-71087430D01*
X168872214Y-71310246D01*
X169453237Y-71310753D01*
X169990226Y-71088874D01*
X170401430Y-70678387D01*
X170624246Y-70141786D01*
X170624753Y-69560763D01*
X170502546Y-69265000D01*
X176894185Y-69265000D01*
X176809400Y-69469690D01*
X176809400Y-69722309D01*
X176809400Y-71754309D01*
X176906073Y-71987698D01*
X177084701Y-72166327D01*
X177318090Y-72263000D01*
X177570709Y-72263000D01*
X179297909Y-72263000D01*
X179531298Y-72166327D01*
X179709927Y-71987699D01*
X179773500Y-71834220D01*
X179788330Y-71856415D01*
X180274511Y-72181271D01*
X180848000Y-72295345D01*
X181421489Y-72181271D01*
X181907670Y-71856415D01*
X182118000Y-71541634D01*
X182328330Y-71856415D01*
X182814511Y-72181271D01*
X183388000Y-72295345D01*
X183961489Y-72181271D01*
X184447670Y-71856415D01*
X184658000Y-71541634D01*
X184868330Y-71856415D01*
X185166000Y-72055311D01*
X185166000Y-72644000D01*
X185224004Y-72935605D01*
X185261093Y-72991113D01*
X184936311Y-73125311D01*
X184782353Y-73279000D01*
X182118000Y-73279000D01*
X181826395Y-73337004D01*
X181579185Y-73502185D01*
X180075942Y-75005427D01*
X180047668Y-74993687D01*
X179618216Y-74993313D01*
X179221311Y-75157311D01*
X178917378Y-75460714D01*
X178816000Y-75704858D01*
X178816000Y-75313641D01*
X178968622Y-75161286D01*
X179133313Y-74764668D01*
X179133687Y-74335216D01*
X178969689Y-73938311D01*
X178666286Y-73634378D01*
X178269668Y-73469687D01*
X177840216Y-73469313D01*
X177443311Y-73633311D01*
X177139378Y-73936714D01*
X176974687Y-74333332D01*
X176974313Y-74762784D01*
X177138311Y-75159689D01*
X177292000Y-75313646D01*
X177292000Y-78105000D01*
X177350004Y-78396605D01*
X177515185Y-78643815D01*
X178150185Y-79278816D01*
X178298376Y-79377834D01*
X178397395Y-79443996D01*
X178397396Y-79443996D01*
X178689000Y-79502000D01*
X179067358Y-79502000D01*
X179219714Y-79654622D01*
X179616332Y-79819313D01*
X180045784Y-79819687D01*
X180442689Y-79655689D01*
X180746622Y-79352286D01*
X180911313Y-78955668D01*
X180911687Y-78526216D01*
X180747689Y-78129311D01*
X180444286Y-77825378D01*
X180047668Y-77660687D01*
X179618216Y-77660313D01*
X179221311Y-77824311D01*
X179067353Y-77978000D01*
X179004630Y-77978000D01*
X178816000Y-77789369D01*
X178816000Y-76440918D01*
X178916311Y-76683689D01*
X179219714Y-76987622D01*
X179616332Y-77152313D01*
X180045784Y-77152687D01*
X180442689Y-76988689D01*
X180746622Y-76685286D01*
X180885288Y-76351341D01*
X182433630Y-74803000D01*
X184782358Y-74803000D01*
X184934714Y-74955622D01*
X185331332Y-75120313D01*
X185760784Y-75120687D01*
X186157689Y-74956689D01*
X186461622Y-74653286D01*
X186584020Y-74358519D01*
X186594695Y-74358528D01*
X186499687Y-74587332D01*
X186499313Y-75016784D01*
X186663311Y-75413689D01*
X186966714Y-75717622D01*
X187363332Y-75882313D01*
X187792784Y-75882687D01*
X187946918Y-75819000D01*
X188240588Y-75819000D01*
X188310673Y-75988198D01*
X188395474Y-76072999D01*
X188310673Y-76157801D01*
X188214000Y-76391190D01*
X188214000Y-76581000D01*
X187579000Y-76581000D01*
X187287395Y-76639004D01*
X187188376Y-76705165D01*
X187040185Y-76804184D01*
X186405185Y-77439185D01*
X186240004Y-77686395D01*
X186182000Y-77978000D01*
X186182000Y-78232000D01*
X186182000Y-79126405D01*
X185952311Y-79221311D01*
X185648378Y-79524714D01*
X185483687Y-79921332D01*
X185483313Y-80350784D01*
X185647311Y-80747689D01*
X185950714Y-81051622D01*
X186347332Y-81216313D01*
X186776784Y-81216687D01*
X187173689Y-81052689D01*
X187477622Y-80749286D01*
X187621316Y-80403232D01*
X187744332Y-80454313D01*
X187978125Y-80454516D01*
X187978126Y-80454516D01*
X188176395Y-80586996D01*
X188214000Y-80594476D01*
X188214000Y-80834809D01*
X188310673Y-81068198D01*
X188489301Y-81246827D01*
X188722690Y-81343500D01*
X188975309Y-81343500D01*
X189738000Y-81343500D01*
X189738000Y-84086858D01*
X189674687Y-84239332D01*
X189674313Y-84668784D01*
X189838311Y-85065689D01*
X190141714Y-85369622D01*
X190538332Y-85534313D01*
X190967784Y-85534687D01*
X191364689Y-85370689D01*
X191668622Y-85067286D01*
X191833313Y-84670668D01*
X191833687Y-84241216D01*
X191770000Y-84087081D01*
X191770000Y-81343500D01*
X192355000Y-81343500D01*
X192355000Y-85675000D01*
X192355000Y-85675000D01*
G37*
X192355000Y-85675000D02*
X180530687Y-85675000D01*
X180530687Y-81193216D01*
X180366689Y-80796311D01*
X180063286Y-80492378D01*
X179666668Y-80327687D01*
X179237216Y-80327313D01*
X178840311Y-80491311D01*
X178686353Y-80645000D01*
X177800000Y-80645000D01*
X171579641Y-80645000D01*
X171427286Y-80492378D01*
X171030668Y-80327687D01*
X170601216Y-80327313D01*
X170204311Y-80491311D01*
X169900378Y-80794714D01*
X169735687Y-81191332D01*
X169735313Y-81620784D01*
X169899311Y-82017689D01*
X170202714Y-82321622D01*
X170599332Y-82486313D01*
X171028784Y-82486687D01*
X171425689Y-82322689D01*
X171579646Y-82169000D01*
X177800000Y-82169000D01*
X178686358Y-82169000D01*
X178838714Y-82321622D01*
X179235332Y-82486313D01*
X179664784Y-82486687D01*
X180061689Y-82322689D01*
X180365622Y-82019286D01*
X180530313Y-81622668D01*
X180530687Y-81193216D01*
X180530687Y-85675000D01*
X170502493Y-85675000D01*
X170624246Y-85381786D01*
X170624753Y-84800763D01*
X170402874Y-84263774D01*
X169992387Y-83852570D01*
X169455786Y-83629754D01*
X168874763Y-83629247D01*
X168337774Y-83851126D01*
X167926570Y-84261613D01*
X167767201Y-84645416D01*
X167767201Y-71324829D01*
X167739230Y-70774552D01*
X167582460Y-70396077D01*
X167341517Y-70328088D01*
X167161912Y-70507693D01*
X167161912Y-70148483D01*
X167093923Y-69907540D01*
X166574829Y-69722799D01*
X166024552Y-69750770D01*
X165646077Y-69907540D01*
X165578088Y-70148483D01*
X166370000Y-70940395D01*
X167161912Y-70148483D01*
X167161912Y-70507693D01*
X166549605Y-71120000D01*
X167341517Y-71911912D01*
X167582460Y-71843923D01*
X167767201Y-71324829D01*
X167767201Y-84645416D01*
X167755240Y-84674221D01*
X167755240Y-83545715D01*
X167544831Y-83036485D01*
X167161912Y-82652898D01*
X167161912Y-72091517D01*
X166370000Y-71299605D01*
X166190395Y-71479210D01*
X166190395Y-71120000D01*
X165398483Y-70328088D01*
X165157540Y-70396077D01*
X164972799Y-70915171D01*
X165000770Y-71465448D01*
X165157540Y-71843923D01*
X165398483Y-71911912D01*
X166190395Y-71120000D01*
X166190395Y-71479210D01*
X165578088Y-72091517D01*
X165646077Y-72332460D01*
X166165171Y-72517201D01*
X166715448Y-72489230D01*
X167093923Y-72332460D01*
X167161912Y-72091517D01*
X167161912Y-82652898D01*
X167155564Y-82646539D01*
X166646702Y-82435241D01*
X166095715Y-82434760D01*
X165586485Y-82645169D01*
X165196539Y-83034436D01*
X164985241Y-83543298D01*
X164984760Y-84094285D01*
X165195169Y-84603515D01*
X165584436Y-84993461D01*
X166093298Y-85204759D01*
X166644285Y-85205240D01*
X167153515Y-84994831D01*
X167543461Y-84605564D01*
X167754759Y-84096702D01*
X167755240Y-83545715D01*
X167755240Y-84674221D01*
X167703754Y-84798214D01*
X167703247Y-85379237D01*
X167825453Y-85675000D01*
X144242202Y-85675000D01*
X144045285Y-85198422D01*
X143531284Y-84683523D01*
X142859367Y-84404518D01*
X142131825Y-84403884D01*
X141459422Y-84681715D01*
X140944523Y-85195716D01*
X140745506Y-85675000D01*
X117525000Y-85675000D01*
X117525000Y-69265000D01*
X140745797Y-69265000D01*
X140942715Y-69741578D01*
X141456716Y-70256477D01*
X142128633Y-70535482D01*
X142856175Y-70536116D01*
X143528578Y-70258285D01*
X144043477Y-69744284D01*
X144242493Y-69265000D01*
X167825506Y-69265000D01*
X167703754Y-69558214D01*
X167703247Y-70139237D01*
X167925126Y-70676226D01*
X168335613Y-71087430D01*
X168872214Y-71310246D01*
X169453237Y-71310753D01*
X169990226Y-71088874D01*
X170401430Y-70678387D01*
X170624246Y-70141786D01*
X170624753Y-69560763D01*
X170502546Y-69265000D01*
X176894185Y-69265000D01*
X176809400Y-69469690D01*
X176809400Y-69722309D01*
X176809400Y-71754309D01*
X176906073Y-71987698D01*
X177084701Y-72166327D01*
X177318090Y-72263000D01*
X177570709Y-72263000D01*
X179297909Y-72263000D01*
X179531298Y-72166327D01*
X179709927Y-71987699D01*
X179773500Y-71834220D01*
X179788330Y-71856415D01*
X180274511Y-72181271D01*
X180848000Y-72295345D01*
X181421489Y-72181271D01*
X181907670Y-71856415D01*
X182118000Y-71541634D01*
X182328330Y-71856415D01*
X182814511Y-72181271D01*
X183388000Y-72295345D01*
X183961489Y-72181271D01*
X184447670Y-71856415D01*
X184658000Y-71541634D01*
X184868330Y-71856415D01*
X185166000Y-72055311D01*
X185166000Y-72644000D01*
X185224004Y-72935605D01*
X185261093Y-72991113D01*
X184936311Y-73125311D01*
X184782353Y-73279000D01*
X182118000Y-73279000D01*
X181826395Y-73337004D01*
X181579185Y-73502185D01*
X180075942Y-75005427D01*
X180047668Y-74993687D01*
X179618216Y-74993313D01*
X179221311Y-75157311D01*
X178917378Y-75460714D01*
X178816000Y-75704858D01*
X178816000Y-75313641D01*
X178968622Y-75161286D01*
X179133313Y-74764668D01*
X179133687Y-74335216D01*
X178969689Y-73938311D01*
X178666286Y-73634378D01*
X178269668Y-73469687D01*
X177840216Y-73469313D01*
X177443311Y-73633311D01*
X177139378Y-73936714D01*
X176974687Y-74333332D01*
X176974313Y-74762784D01*
X177138311Y-75159689D01*
X177292000Y-75313646D01*
X177292000Y-78105000D01*
X177350004Y-78396605D01*
X177515185Y-78643815D01*
X178150185Y-79278816D01*
X178298376Y-79377834D01*
X178397395Y-79443996D01*
X178397396Y-79443996D01*
X178689000Y-79502000D01*
X179067358Y-79502000D01*
X179219714Y-79654622D01*
X179616332Y-79819313D01*
X180045784Y-79819687D01*
X180442689Y-79655689D01*
X180746622Y-79352286D01*
X180911313Y-78955668D01*
X180911687Y-78526216D01*
X180747689Y-78129311D01*
X180444286Y-77825378D01*
X180047668Y-77660687D01*
X179618216Y-77660313D01*
X179221311Y-77824311D01*
X179067353Y-77978000D01*
X179004630Y-77978000D01*
X178816000Y-77789369D01*
X178816000Y-76440918D01*
X178916311Y-76683689D01*
X179219714Y-76987622D01*
X179616332Y-77152313D01*
X180045784Y-77152687D01*
X180442689Y-76988689D01*
X180746622Y-76685286D01*
X180885288Y-76351341D01*
X182433630Y-74803000D01*
X184782358Y-74803000D01*
X184934714Y-74955622D01*
X185331332Y-75120313D01*
X185760784Y-75120687D01*
X186157689Y-74956689D01*
X186461622Y-74653286D01*
X186584020Y-74358519D01*
X186594695Y-74358528D01*
X186499687Y-74587332D01*
X186499313Y-75016784D01*
X186663311Y-75413689D01*
X186966714Y-75717622D01*
X187363332Y-75882313D01*
X187792784Y-75882687D01*
X187946918Y-75819000D01*
X188240588Y-75819000D01*
X188310673Y-75988198D01*
X188395474Y-76072999D01*
X188310673Y-76157801D01*
X188214000Y-76391190D01*
X188214000Y-76581000D01*
X187579000Y-76581000D01*
X187287395Y-76639004D01*
X187188376Y-76705165D01*
X187040185Y-76804184D01*
X186405185Y-77439185D01*
X186240004Y-77686395D01*
X186182000Y-77978000D01*
X186182000Y-78232000D01*
X186182000Y-79126405D01*
X185952311Y-79221311D01*
X185648378Y-79524714D01*
X185483687Y-79921332D01*
X185483313Y-80350784D01*
X185647311Y-80747689D01*
X185950714Y-81051622D01*
X186347332Y-81216313D01*
X186776784Y-81216687D01*
X187173689Y-81052689D01*
X187477622Y-80749286D01*
X187621316Y-80403232D01*
X187744332Y-80454313D01*
X187978125Y-80454516D01*
X187978126Y-80454516D01*
X188176395Y-80586996D01*
X188214000Y-80594476D01*
X188214000Y-80834809D01*
X188310673Y-81068198D01*
X188489301Y-81246827D01*
X188722690Y-81343500D01*
X188975309Y-81343500D01*
X189738000Y-81343500D01*
X189738000Y-84086858D01*
X189674687Y-84239332D01*
X189674313Y-84668784D01*
X189838311Y-85065689D01*
X190141714Y-85369622D01*
X190538332Y-85534313D01*
X190967784Y-85534687D01*
X191364689Y-85370689D01*
X191668622Y-85067286D01*
X191833313Y-84670668D01*
X191833687Y-84241216D01*
X191770000Y-84087081D01*
X191770000Y-81343500D01*
X192355000Y-81343500D01*
X192355000Y-85675000D01*
M02*
