M48
INCH,TZ
T1C0.024
T2C0.025
T3C0.040
T4C0.060
%
G90
G05
T1
X65500Y-28000
X65500Y-33000
T2
X65400Y-30850
X65650Y-30100
X67250Y-32050
X69600Y-28950
X70100Y-29350
X70650Y-32050
X70800Y-29950
X70800Y-31000
X73050Y-29150
X73050Y-30450
X73450Y-28850
X73450Y-31550
X73850Y-29450
X74000Y-31250
X74400Y-32200
X75100Y-33250
T3
X70200Y-27800
X71200Y-27800
X72200Y-27800
X73200Y-27800
X74200Y-27800
X75200Y-27800
T4
X56100Y-27050
X56100Y-33950
X66600Y-27500
X66600Y-33500
T0
M30
