%FSLAX46Y46*%
G04 Gerber Fmt 4.6, Leading zero omitted, Abs format (unit mm)*
G04 Created by KiCad (PCBNEW (2014-jul-16 BZR unknown)-product) date Fri 27 Mar 2015 10:35:30 AM EDT*
%MOMM*%
G01*
G04 APERTURE LIST*
%ADD10C,0.100000*%
%ADD11C,2.032000*%
%ADD12C,1.651000*%
%ADD13R,1.727200X2.032000*%
%ADD14O,1.727200X2.032000*%
%ADD15R,3.810000X2.100000*%
%ADD16C,0.889000*%
%ADD17C,0.762000*%
%ADD18C,0.254000*%
G04 APERTURE END LIST*
D10*
D11*
X166370000Y-83820000D03*
X166370000Y-71120000D03*
D12*
X142494000Y-86233000D03*
X142494000Y-68707000D03*
X169164000Y-69850000D03*
X169164000Y-85090000D03*
D13*
X178308000Y-70612000D03*
D14*
X180848000Y-70612000D03*
X183388000Y-70612000D03*
X185928000Y-70612000D03*
X188468000Y-70612000D03*
X191008000Y-70612000D03*
D15*
X190525400Y-81223000D03*
X190525400Y-77343000D03*
X190525400Y-73463000D03*
D16*
X190754000Y-84455000D03*
X187960000Y-79375000D03*
X187210700Y-82918300D03*
X186118500Y-78206600D03*
X176784000Y-73914000D03*
X166116000Y-78359000D03*
X166751000Y-76454000D03*
X186928760Y-74038460D03*
X179832000Y-76073000D03*
X186563000Y-80137000D03*
X179451000Y-81407000D03*
X170815000Y-81407000D03*
X178054000Y-74549000D03*
X179832000Y-78740000D03*
X187883800Y-74739500D03*
D17*
X190754000Y-81451600D02*
X190754000Y-84455000D01*
D18*
X187960000Y-79375000D02*
X188677400Y-79375000D01*
X188677400Y-79375000D02*
X190525400Y-81223000D01*
D17*
X190754000Y-81451600D02*
X190525400Y-81223000D01*
D18*
X186118500Y-78206600D02*
X186118500Y-78232000D01*
X183388000Y-70650100D02*
X183388000Y-70612000D01*
X179832000Y-76073000D02*
X180086000Y-76073000D01*
X186928760Y-74038460D02*
X182118000Y-74041000D01*
X180086000Y-76073000D02*
X182118000Y-74041000D01*
X186944000Y-78905100D02*
X186944000Y-79756000D01*
X186944000Y-78905100D02*
X188506100Y-77343000D01*
X186563000Y-80137000D02*
X186944000Y-79756000D01*
X188506100Y-77343000D02*
X190754000Y-77343000D01*
X190754000Y-77343000D02*
X189611000Y-77343000D01*
X190754000Y-77343000D02*
X189611000Y-77343000D01*
X179451000Y-81407000D02*
X177800000Y-81407000D01*
X177800000Y-81407000D02*
X170815000Y-81407000D01*
X178689000Y-78740000D02*
X179832000Y-78740000D01*
X178054000Y-78105000D02*
X178689000Y-78740000D01*
X178054000Y-74549000D02*
X178054000Y-78105000D01*
D17*
X187883800Y-74739500D02*
X189160300Y-73463000D01*
X189160300Y-73463000D02*
X190525400Y-73463000D01*
D18*
G36*
X191155000Y-70739000D02*
X191135000Y-70739000D01*
X191135000Y-70759000D01*
X190881000Y-70759000D01*
X190881000Y-70739000D01*
X190861000Y-70739000D01*
X190861000Y-70485000D01*
X190881000Y-70485000D01*
X190881000Y-70465000D01*
X191135000Y-70465000D01*
X191135000Y-70485000D01*
X191155000Y-70485000D01*
X191155000Y-70739000D01*
X191155000Y-70739000D01*
G37*
X191155000Y-70739000D02*
X191135000Y-70739000D01*
X191135000Y-70759000D01*
X190881000Y-70759000D01*
X190881000Y-70739000D01*
X190861000Y-70739000D01*
X190861000Y-70485000D01*
X190881000Y-70485000D01*
X190881000Y-70465000D01*
X191135000Y-70465000D01*
X191135000Y-70485000D01*
X191155000Y-70485000D01*
X191155000Y-70739000D01*
G36*
X192355000Y-85675000D02*
X180530687Y-85675000D01*
X180530687Y-81193216D01*
X180366689Y-80796311D01*
X180063286Y-80492378D01*
X179666668Y-80327687D01*
X179237216Y-80327313D01*
X178840311Y-80491311D01*
X178686353Y-80645000D01*
X177800000Y-80645000D01*
X171579641Y-80645000D01*
X171427286Y-80492378D01*
X171030668Y-80327687D01*
X170601216Y-80327313D01*
X170204311Y-80491311D01*
X169900378Y-80794714D01*
X169735687Y-81191332D01*
X169735313Y-81620784D01*
X169899311Y-82017689D01*
X170202714Y-82321622D01*
X170599332Y-82486313D01*
X171028784Y-82486687D01*
X171425689Y-82322689D01*
X171579646Y-82169000D01*
X177800000Y-82169000D01*
X178686358Y-82169000D01*
X178838714Y-82321622D01*
X179235332Y-82486313D01*
X179664784Y-82486687D01*
X180061689Y-82322689D01*
X180365622Y-82019286D01*
X180530313Y-81622668D01*
X180530687Y-81193216D01*
X180530687Y-85675000D01*
X170502493Y-85675000D01*
X170624246Y-85381786D01*
X170624753Y-84800763D01*
X170402874Y-84263774D01*
X169992387Y-83852570D01*
X169455786Y-83629754D01*
X168874763Y-83629247D01*
X168337774Y-83851126D01*
X168008096Y-84180228D01*
X168020713Y-84149845D01*
X168021286Y-83493037D01*
X167770466Y-82886005D01*
X167354502Y-82469314D01*
X167354502Y-72284107D01*
X166370000Y-71299605D01*
X166190395Y-71479210D01*
X166190395Y-71120000D01*
X165205893Y-70135498D01*
X164937378Y-70236120D01*
X164708184Y-70851642D01*
X164731986Y-71508019D01*
X164937378Y-72003880D01*
X165205893Y-72104502D01*
X166190395Y-71120000D01*
X166190395Y-71479210D01*
X165385498Y-72284107D01*
X165486120Y-72552622D01*
X166101642Y-72781816D01*
X166758019Y-72758014D01*
X167253880Y-72552622D01*
X167354502Y-72284107D01*
X167354502Y-82469314D01*
X167306437Y-82421166D01*
X166699845Y-82169287D01*
X166043037Y-82168714D01*
X165436005Y-82419534D01*
X164971166Y-82883563D01*
X164719287Y-83490155D01*
X164718714Y-84146963D01*
X164969534Y-84753995D01*
X165433563Y-85218834D01*
X166040155Y-85470713D01*
X166696963Y-85471286D01*
X167303995Y-85220466D01*
X167703733Y-84821423D01*
X167703247Y-85379237D01*
X167825453Y-85675000D01*
X143843702Y-85675000D01*
X143732874Y-85406774D01*
X143322387Y-84995570D01*
X142785786Y-84772754D01*
X142204763Y-84772247D01*
X141667774Y-84994126D01*
X141256570Y-85404613D01*
X141144295Y-85675000D01*
X117525000Y-85675000D01*
X117525000Y-69265000D01*
X141144297Y-69265000D01*
X141255126Y-69533226D01*
X141665613Y-69944430D01*
X142202214Y-70167246D01*
X142783237Y-70167753D01*
X143320226Y-69945874D01*
X143731430Y-69535387D01*
X143843704Y-69265000D01*
X167825506Y-69265000D01*
X167703754Y-69558214D01*
X167703247Y-70139237D01*
X167732406Y-70209807D01*
X167534107Y-70135498D01*
X167354502Y-70315103D01*
X167354502Y-69955893D01*
X167253880Y-69687378D01*
X166638358Y-69458184D01*
X165981981Y-69481986D01*
X165486120Y-69687378D01*
X165385498Y-69955893D01*
X166370000Y-70940395D01*
X167354502Y-69955893D01*
X167354502Y-70315103D01*
X166549605Y-71120000D01*
X167534107Y-72104502D01*
X167802622Y-72003880D01*
X168031816Y-71388358D01*
X168009040Y-70760287D01*
X168335613Y-71087430D01*
X168872214Y-71310246D01*
X169453237Y-71310753D01*
X169990226Y-71088874D01*
X170401430Y-70678387D01*
X170624246Y-70141786D01*
X170624753Y-69560763D01*
X170502546Y-69265000D01*
X176894185Y-69265000D01*
X176809400Y-69469690D01*
X176809400Y-69722309D01*
X176809400Y-71754309D01*
X176906073Y-71987698D01*
X177084701Y-72166327D01*
X177318090Y-72263000D01*
X177570709Y-72263000D01*
X179297909Y-72263000D01*
X179531298Y-72166327D01*
X179709927Y-71987699D01*
X179773500Y-71834220D01*
X179788330Y-71856415D01*
X180274511Y-72181271D01*
X180848000Y-72295345D01*
X181421489Y-72181271D01*
X181907670Y-71856415D01*
X182118000Y-71541634D01*
X182328330Y-71856415D01*
X182814511Y-72181271D01*
X183388000Y-72295345D01*
X183961489Y-72181271D01*
X184447670Y-71856415D01*
X184658000Y-71541634D01*
X184868330Y-71856415D01*
X185354511Y-72181271D01*
X185928000Y-72295345D01*
X186501489Y-72181271D01*
X186987670Y-71856415D01*
X187198000Y-71541634D01*
X187408330Y-71856415D01*
X187894511Y-72181271D01*
X188018823Y-72205998D01*
X187985400Y-72286690D01*
X187985400Y-72539309D01*
X187985400Y-73201059D01*
X187801606Y-73384853D01*
X187541046Y-73123838D01*
X187144428Y-72959147D01*
X186714976Y-72958773D01*
X186318071Y-73122771D01*
X186163709Y-73276863D01*
X182117598Y-73279000D01*
X181971666Y-73308107D01*
X181826396Y-73337004D01*
X181826226Y-73337117D01*
X181826023Y-73337158D01*
X181702466Y-73419810D01*
X181579185Y-73502185D01*
X180075942Y-75005427D01*
X180047668Y-74993687D01*
X179618216Y-74993313D01*
X179221311Y-75157311D01*
X178917378Y-75460714D01*
X178816000Y-75704858D01*
X178816000Y-75313641D01*
X178968622Y-75161286D01*
X179133313Y-74764668D01*
X179133687Y-74335216D01*
X178969689Y-73938311D01*
X178666286Y-73634378D01*
X178269668Y-73469687D01*
X177840216Y-73469313D01*
X177443311Y-73633311D01*
X177139378Y-73936714D01*
X176974687Y-74333332D01*
X176974313Y-74762784D01*
X177138311Y-75159689D01*
X177292000Y-75313646D01*
X177292000Y-78105000D01*
X177350004Y-78396605D01*
X177515185Y-78643815D01*
X178150185Y-79278816D01*
X178298376Y-79377834D01*
X178397395Y-79443996D01*
X178397396Y-79443996D01*
X178689000Y-79502000D01*
X179067358Y-79502000D01*
X179219714Y-79654622D01*
X179616332Y-79819313D01*
X180045784Y-79819687D01*
X180442689Y-79655689D01*
X180746622Y-79352286D01*
X180911313Y-78955668D01*
X180911687Y-78526216D01*
X180747689Y-78129311D01*
X180444286Y-77825378D01*
X180047668Y-77660687D01*
X179618216Y-77660313D01*
X179221311Y-77824311D01*
X179067353Y-77978000D01*
X179004630Y-77978000D01*
X178816000Y-77789369D01*
X178816000Y-76440918D01*
X178916311Y-76683689D01*
X179219714Y-76987622D01*
X179616332Y-77152313D01*
X180045784Y-77152687D01*
X180442689Y-76988689D01*
X180746622Y-76685286D01*
X180885288Y-76351341D01*
X182433796Y-74802833D01*
X186164521Y-74800863D01*
X186316474Y-74953082D01*
X186713092Y-75117773D01*
X186872135Y-75117911D01*
X186968111Y-75350189D01*
X187271514Y-75654122D01*
X187668132Y-75818813D01*
X188097584Y-75819187D01*
X188494489Y-75655189D01*
X188798422Y-75351786D01*
X188862379Y-75197761D01*
X188912140Y-75148000D01*
X192355000Y-75148000D01*
X192355000Y-75658000D01*
X192304091Y-75658000D01*
X188494091Y-75658000D01*
X188260702Y-75754673D01*
X188082073Y-75933301D01*
X187985400Y-76166690D01*
X187985400Y-76419309D01*
X187985400Y-76792080D01*
X187967285Y-76804185D01*
X186405185Y-78366285D01*
X186240004Y-78613495D01*
X186182000Y-78905100D01*
X186182000Y-79126405D01*
X185952311Y-79221311D01*
X185648378Y-79524714D01*
X185483687Y-79921332D01*
X185483313Y-80350784D01*
X185647311Y-80747689D01*
X185950714Y-81051622D01*
X186347332Y-81216313D01*
X186776784Y-81216687D01*
X187173689Y-81052689D01*
X187477622Y-80749286D01*
X187621316Y-80403232D01*
X187744332Y-80454313D01*
X187985400Y-80454522D01*
X187985400Y-82399309D01*
X188082073Y-82632698D01*
X188260701Y-82811327D01*
X188494090Y-82908000D01*
X188746709Y-82908000D01*
X189738000Y-82908000D01*
X189738000Y-84086858D01*
X189674687Y-84239332D01*
X189674313Y-84668784D01*
X189838311Y-85065689D01*
X190141714Y-85369622D01*
X190538332Y-85534313D01*
X190967784Y-85534687D01*
X191364689Y-85370689D01*
X191668622Y-85067286D01*
X191833313Y-84670668D01*
X191833687Y-84241216D01*
X191770000Y-84087081D01*
X191770000Y-82908000D01*
X192355000Y-82908000D01*
X192355000Y-85675000D01*
X192355000Y-85675000D01*
G37*
X192355000Y-85675000D02*
X180530687Y-85675000D01*
X180530687Y-81193216D01*
X180366689Y-80796311D01*
X180063286Y-80492378D01*
X179666668Y-80327687D01*
X179237216Y-80327313D01*
X178840311Y-80491311D01*
X178686353Y-80645000D01*
X177800000Y-80645000D01*
X171579641Y-80645000D01*
X171427286Y-80492378D01*
X171030668Y-80327687D01*
X170601216Y-80327313D01*
X170204311Y-80491311D01*
X169900378Y-80794714D01*
X169735687Y-81191332D01*
X169735313Y-81620784D01*
X169899311Y-82017689D01*
X170202714Y-82321622D01*
X170599332Y-82486313D01*
X171028784Y-82486687D01*
X171425689Y-82322689D01*
X171579646Y-82169000D01*
X177800000Y-82169000D01*
X178686358Y-82169000D01*
X178838714Y-82321622D01*
X179235332Y-82486313D01*
X179664784Y-82486687D01*
X180061689Y-82322689D01*
X180365622Y-82019286D01*
X180530313Y-81622668D01*
X180530687Y-81193216D01*
X180530687Y-85675000D01*
X170502493Y-85675000D01*
X170624246Y-85381786D01*
X170624753Y-84800763D01*
X170402874Y-84263774D01*
X169992387Y-83852570D01*
X169455786Y-83629754D01*
X168874763Y-83629247D01*
X168337774Y-83851126D01*
X168008096Y-84180228D01*
X168020713Y-84149845D01*
X168021286Y-83493037D01*
X167770466Y-82886005D01*
X167354502Y-82469314D01*
X167354502Y-72284107D01*
X166370000Y-71299605D01*
X166190395Y-71479210D01*
X166190395Y-71120000D01*
X165205893Y-70135498D01*
X164937378Y-70236120D01*
X164708184Y-70851642D01*
X164731986Y-71508019D01*
X164937378Y-72003880D01*
X165205893Y-72104502D01*
X166190395Y-71120000D01*
X166190395Y-71479210D01*
X165385498Y-72284107D01*
X165486120Y-72552622D01*
X166101642Y-72781816D01*
X166758019Y-72758014D01*
X167253880Y-72552622D01*
X167354502Y-72284107D01*
X167354502Y-82469314D01*
X167306437Y-82421166D01*
X166699845Y-82169287D01*
X166043037Y-82168714D01*
X165436005Y-82419534D01*
X164971166Y-82883563D01*
X164719287Y-83490155D01*
X164718714Y-84146963D01*
X164969534Y-84753995D01*
X165433563Y-85218834D01*
X166040155Y-85470713D01*
X166696963Y-85471286D01*
X167303995Y-85220466D01*
X167703733Y-84821423D01*
X167703247Y-85379237D01*
X167825453Y-85675000D01*
X143843702Y-85675000D01*
X143732874Y-85406774D01*
X143322387Y-84995570D01*
X142785786Y-84772754D01*
X142204763Y-84772247D01*
X141667774Y-84994126D01*
X141256570Y-85404613D01*
X141144295Y-85675000D01*
X117525000Y-85675000D01*
X117525000Y-69265000D01*
X141144297Y-69265000D01*
X141255126Y-69533226D01*
X141665613Y-69944430D01*
X142202214Y-70167246D01*
X142783237Y-70167753D01*
X143320226Y-69945874D01*
X143731430Y-69535387D01*
X143843704Y-69265000D01*
X167825506Y-69265000D01*
X167703754Y-69558214D01*
X167703247Y-70139237D01*
X167732406Y-70209807D01*
X167534107Y-70135498D01*
X167354502Y-70315103D01*
X167354502Y-69955893D01*
X167253880Y-69687378D01*
X166638358Y-69458184D01*
X165981981Y-69481986D01*
X165486120Y-69687378D01*
X165385498Y-69955893D01*
X166370000Y-70940395D01*
X167354502Y-69955893D01*
X167354502Y-70315103D01*
X166549605Y-71120000D01*
X167534107Y-72104502D01*
X167802622Y-72003880D01*
X168031816Y-71388358D01*
X168009040Y-70760287D01*
X168335613Y-71087430D01*
X168872214Y-71310246D01*
X169453237Y-71310753D01*
X169990226Y-71088874D01*
X170401430Y-70678387D01*
X170624246Y-70141786D01*
X170624753Y-69560763D01*
X170502546Y-69265000D01*
X176894185Y-69265000D01*
X176809400Y-69469690D01*
X176809400Y-69722309D01*
X176809400Y-71754309D01*
X176906073Y-71987698D01*
X177084701Y-72166327D01*
X177318090Y-72263000D01*
X177570709Y-72263000D01*
X179297909Y-72263000D01*
X179531298Y-72166327D01*
X179709927Y-71987699D01*
X179773500Y-71834220D01*
X179788330Y-71856415D01*
X180274511Y-72181271D01*
X180848000Y-72295345D01*
X181421489Y-72181271D01*
X181907670Y-71856415D01*
X182118000Y-71541634D01*
X182328330Y-71856415D01*
X182814511Y-72181271D01*
X183388000Y-72295345D01*
X183961489Y-72181271D01*
X184447670Y-71856415D01*
X184658000Y-71541634D01*
X184868330Y-71856415D01*
X185354511Y-72181271D01*
X185928000Y-72295345D01*
X186501489Y-72181271D01*
X186987670Y-71856415D01*
X187198000Y-71541634D01*
X187408330Y-71856415D01*
X187894511Y-72181271D01*
X188018823Y-72205998D01*
X187985400Y-72286690D01*
X187985400Y-72539309D01*
X187985400Y-73201059D01*
X187801606Y-73384853D01*
X187541046Y-73123838D01*
X187144428Y-72959147D01*
X186714976Y-72958773D01*
X186318071Y-73122771D01*
X186163709Y-73276863D01*
X182117598Y-73279000D01*
X181971666Y-73308107D01*
X181826396Y-73337004D01*
X181826226Y-73337117D01*
X181826023Y-73337158D01*
X181702466Y-73419810D01*
X181579185Y-73502185D01*
X180075942Y-75005427D01*
X180047668Y-74993687D01*
X179618216Y-74993313D01*
X179221311Y-75157311D01*
X178917378Y-75460714D01*
X178816000Y-75704858D01*
X178816000Y-75313641D01*
X178968622Y-75161286D01*
X179133313Y-74764668D01*
X179133687Y-74335216D01*
X178969689Y-73938311D01*
X178666286Y-73634378D01*
X178269668Y-73469687D01*
X177840216Y-73469313D01*
X177443311Y-73633311D01*
X177139378Y-73936714D01*
X176974687Y-74333332D01*
X176974313Y-74762784D01*
X177138311Y-75159689D01*
X177292000Y-75313646D01*
X177292000Y-78105000D01*
X177350004Y-78396605D01*
X177515185Y-78643815D01*
X178150185Y-79278816D01*
X178298376Y-79377834D01*
X178397395Y-79443996D01*
X178397396Y-79443996D01*
X178689000Y-79502000D01*
X179067358Y-79502000D01*
X179219714Y-79654622D01*
X179616332Y-79819313D01*
X180045784Y-79819687D01*
X180442689Y-79655689D01*
X180746622Y-79352286D01*
X180911313Y-78955668D01*
X180911687Y-78526216D01*
X180747689Y-78129311D01*
X180444286Y-77825378D01*
X180047668Y-77660687D01*
X179618216Y-77660313D01*
X179221311Y-77824311D01*
X179067353Y-77978000D01*
X179004630Y-77978000D01*
X178816000Y-77789369D01*
X178816000Y-76440918D01*
X178916311Y-76683689D01*
X179219714Y-76987622D01*
X179616332Y-77152313D01*
X180045784Y-77152687D01*
X180442689Y-76988689D01*
X180746622Y-76685286D01*
X180885288Y-76351341D01*
X182433796Y-74802833D01*
X186164521Y-74800863D01*
X186316474Y-74953082D01*
X186713092Y-75117773D01*
X186872135Y-75117911D01*
X186968111Y-75350189D01*
X187271514Y-75654122D01*
X187668132Y-75818813D01*
X188097584Y-75819187D01*
X188494489Y-75655189D01*
X188798422Y-75351786D01*
X188862379Y-75197761D01*
X188912140Y-75148000D01*
X192355000Y-75148000D01*
X192355000Y-75658000D01*
X192304091Y-75658000D01*
X188494091Y-75658000D01*
X188260702Y-75754673D01*
X188082073Y-75933301D01*
X187985400Y-76166690D01*
X187985400Y-76419309D01*
X187985400Y-76792080D01*
X187967285Y-76804185D01*
X186405185Y-78366285D01*
X186240004Y-78613495D01*
X186182000Y-78905100D01*
X186182000Y-79126405D01*
X185952311Y-79221311D01*
X185648378Y-79524714D01*
X185483687Y-79921332D01*
X185483313Y-80350784D01*
X185647311Y-80747689D01*
X185950714Y-81051622D01*
X186347332Y-81216313D01*
X186776784Y-81216687D01*
X187173689Y-81052689D01*
X187477622Y-80749286D01*
X187621316Y-80403232D01*
X187744332Y-80454313D01*
X187985400Y-80454522D01*
X187985400Y-82399309D01*
X188082073Y-82632698D01*
X188260701Y-82811327D01*
X188494090Y-82908000D01*
X188746709Y-82908000D01*
X189738000Y-82908000D01*
X189738000Y-84086858D01*
X189674687Y-84239332D01*
X189674313Y-84668784D01*
X189838311Y-85065689D01*
X190141714Y-85369622D01*
X190538332Y-85534313D01*
X190967784Y-85534687D01*
X191364689Y-85370689D01*
X191668622Y-85067286D01*
X191833313Y-84670668D01*
X191833687Y-84241216D01*
X191770000Y-84087081D01*
X191770000Y-82908000D01*
X192355000Y-82908000D01*
X192355000Y-85675000D01*
M02*
