%FSLAX46Y46*%
G04 Gerber Fmt 4.6, Leading zero omitted, Abs format (unit mm)*
G04 Created by KiCad (PCBNEW (2014-jul-16 BZR unknown)-product) date Fri 27 Mar 2015 10:35:30 AM EDT*
%MOMM*%
G01*
G04 APERTURE LIST*
%ADD10C,0.100000*%
%ADD11R,1.250000X1.500000*%
%ADD12R,1.300480X0.299720*%
%ADD13C,2.032000*%
%ADD14C,1.651000*%
%ADD15R,0.900000X1.200000*%
%ADD16R,0.825000X0.300000*%
%ADD17R,1.727200X2.032000*%
%ADD18O,1.727200X2.032000*%
%ADD19R,1.000760X0.822960*%
%ADD20C,0.889000*%
%ADD21C,0.762000*%
%ADD22C,0.254000*%
%ADD23C,0.152400*%
G04 APERTURE END LIST*
D10*
D11*
X182499000Y-84422300D03*
X182499000Y-81922300D03*
X185013600Y-84371500D03*
X185013600Y-81871500D03*
D12*
X183642000Y-79400400D03*
X183642000Y-78765400D03*
X183642000Y-78105000D03*
X183642000Y-77470000D03*
X183642000Y-76809600D03*
X183642000Y-76161900D03*
X183642000Y-75514200D03*
X178054000Y-75514200D03*
X178054000Y-76161900D03*
X178054000Y-76809600D03*
X178054000Y-77470000D03*
X178054000Y-78117700D03*
X178054000Y-78765400D03*
X178054000Y-79413100D03*
D13*
X166370000Y-83820000D03*
X166370000Y-71120000D03*
D14*
X142494000Y-86233000D03*
X142494000Y-68707000D03*
D15*
X172593000Y-69893000D03*
X172593000Y-72093000D03*
X175006000Y-84031000D03*
X175006000Y-81831000D03*
D16*
X173325000Y-76470000D03*
X173325000Y-76970000D03*
X173325000Y-77470000D03*
X173325000Y-77970000D03*
X173325000Y-78470000D03*
X170845000Y-78470000D03*
X170845000Y-77970000D03*
X170845000Y-77470000D03*
X170845000Y-76970000D03*
X170845000Y-76470000D03*
D14*
X169164000Y-69850000D03*
X169164000Y-85090000D03*
D17*
X178308000Y-70612000D03*
D18*
X180848000Y-70612000D03*
X183388000Y-70612000D03*
X185928000Y-70612000D03*
X188468000Y-70612000D03*
X191008000Y-70612000D03*
D19*
X186095640Y-77012800D03*
X186095640Y-75107800D03*
X187871100Y-76060300D03*
D20*
X190754000Y-84455000D03*
X187960000Y-79375000D03*
X187210700Y-82918300D03*
X186118500Y-78206600D03*
X176784000Y-73914000D03*
X166116000Y-78359000D03*
X166751000Y-76454000D03*
X186928760Y-74038460D03*
X179832000Y-76073000D03*
X186563000Y-80137000D03*
X179451000Y-81407000D03*
X170815000Y-81407000D03*
X178054000Y-74549000D03*
X179832000Y-78740000D03*
X187883800Y-74739500D03*
D21*
X182499000Y-84422300D02*
X184962800Y-84422300D01*
X184962800Y-84422300D02*
X185013600Y-84371500D01*
X182486300Y-84435000D02*
X179177000Y-84435000D01*
X178773000Y-84031000D02*
X175006000Y-84031000D01*
X179177000Y-84435000D02*
X178773000Y-84031000D01*
X182486300Y-84435000D02*
X182499000Y-84422300D01*
X182549800Y-84371500D02*
X182499000Y-84422300D01*
X190754000Y-84455000D02*
X185097100Y-84455000D01*
X185097100Y-84455000D02*
X185013600Y-84371500D01*
X190754000Y-84455000D02*
X190734000Y-84435000D01*
D22*
X187934600Y-79400400D02*
X187960000Y-79375000D01*
X183388000Y-79400400D02*
X187934600Y-79400400D01*
X180848000Y-70612000D02*
X180848000Y-69977000D01*
X180848000Y-69977000D02*
X180086000Y-69215000D01*
X180086000Y-69215000D02*
X173271000Y-69215000D01*
X173271000Y-69215000D02*
X172593000Y-69893000D01*
X172593000Y-69893000D02*
X171661000Y-69893000D01*
X170942000Y-72898000D02*
X170053000Y-73787000D01*
X170942000Y-70612000D02*
X170942000Y-72898000D01*
X171661000Y-69893000D02*
X170942000Y-70612000D01*
X165989000Y-73787000D02*
X165227000Y-74549000D01*
X165227000Y-77851000D02*
X165227000Y-74549000D01*
X176149000Y-74295000D02*
X175641000Y-73787000D01*
X175641000Y-73787000D02*
X170053000Y-73787000D01*
X170053000Y-73787000D02*
X165989000Y-73787000D01*
X176149000Y-74295000D02*
X176149000Y-76581000D01*
X175760000Y-76970000D02*
X176149000Y-76581000D01*
D23*
X173325000Y-76970000D02*
X175387000Y-76970000D01*
D22*
X175387000Y-76970000D02*
X175760000Y-76970000D01*
X176149000Y-76581000D02*
X176149000Y-76200000D01*
D23*
X170845000Y-77470000D02*
X168783000Y-77470000D01*
D22*
X165608000Y-77470000D02*
X165227000Y-77851000D01*
X168783000Y-77470000D02*
X165608000Y-77470000D01*
X166370000Y-83820000D02*
X166370000Y-81407000D01*
X165227000Y-80264000D02*
X165227000Y-77851000D01*
X166370000Y-81407000D02*
X165227000Y-80264000D01*
D21*
X175006000Y-84031000D02*
X172931000Y-84031000D01*
X167132000Y-83058000D02*
X166370000Y-83820000D01*
X171958000Y-83058000D02*
X167132000Y-83058000D01*
X172931000Y-84031000D02*
X171958000Y-83058000D01*
X185013600Y-81871500D02*
X186163900Y-81871500D01*
X186163900Y-81871500D02*
X187210700Y-82918300D01*
D22*
X182252300Y-82169000D02*
X180314600Y-82169000D01*
X178054000Y-81534000D02*
X178054000Y-79413100D01*
X178054000Y-81534000D02*
X178689000Y-82169000D01*
X178689000Y-82169000D02*
X180314600Y-82169000D01*
X182252300Y-82169000D02*
X182499000Y-81922300D01*
D21*
X185013600Y-81871500D02*
X182549800Y-81871500D01*
X182549800Y-81871500D02*
X182499000Y-81922300D01*
X185097100Y-81788000D02*
X187337700Y-81788000D01*
X187337700Y-81788000D02*
X188976000Y-81788000D01*
X191008000Y-79756000D02*
X191008000Y-70612000D01*
X191008000Y-79756000D02*
X188976000Y-81788000D01*
X185097100Y-81788000D02*
X185013600Y-81871500D01*
X186118500Y-78206600D02*
X186118500Y-77000100D01*
X186118500Y-77000100D02*
X186108340Y-76989940D01*
D22*
X186108340Y-78196440D02*
X186118500Y-78206600D01*
X176555402Y-74422000D02*
X176555402Y-74142598D01*
X176555402Y-74142598D02*
X176784000Y-73914000D01*
X176555402Y-76200000D02*
X176555402Y-74422000D01*
X176555402Y-74422000D02*
X176555402Y-74396598D01*
X175895000Y-77470000D02*
X176555402Y-76809598D01*
X176555402Y-76809598D02*
X176555402Y-76200000D01*
D23*
X173325000Y-77470000D02*
X175387000Y-77470000D01*
D22*
X175387000Y-77470000D02*
X175895000Y-77470000D01*
X167648000Y-77970000D02*
X166505000Y-77970000D01*
D23*
X170845000Y-77970000D02*
X168783000Y-77978000D01*
D22*
X168783000Y-77978000D02*
X167648000Y-77970000D01*
X166505000Y-77970000D02*
X166116000Y-78359000D01*
D23*
X170845000Y-76470000D02*
X168783000Y-76470000D01*
D22*
X168783000Y-76470000D02*
X166767000Y-76470000D01*
X166767000Y-76470000D02*
X166751000Y-76454000D01*
X183642000Y-77470000D02*
X184277000Y-77470000D01*
X184785000Y-72669400D02*
X184785000Y-72644000D01*
X184785000Y-76962000D02*
X184785000Y-72669400D01*
X184277000Y-77470000D02*
X184785000Y-76962000D01*
X184785000Y-72009000D02*
X183388000Y-70612000D01*
X184785000Y-72669400D02*
X184785000Y-72009000D01*
X186095640Y-75107800D02*
X186095640Y-74871580D01*
X186095640Y-74871580D02*
X186928760Y-74038460D01*
X186994800Y-74104500D02*
X186928760Y-74038460D01*
X178054000Y-76161900D02*
X179743100Y-76161900D01*
X179743100Y-76161900D02*
X179832000Y-76073000D01*
X179743100Y-76161900D02*
X179832000Y-76073000D01*
X181483000Y-80010000D02*
X181991000Y-80518000D01*
X181483000Y-80010000D02*
X181483000Y-77597000D01*
X177800000Y-76809600D02*
X180695600Y-76809600D01*
X180695600Y-76809600D02*
X181483000Y-77597000D01*
X186182000Y-80518000D02*
X186563000Y-80137000D01*
X181991000Y-80518000D02*
X186182000Y-80518000D01*
X178054000Y-77470000D02*
X180467000Y-77470000D01*
D23*
X168783000Y-78470000D02*
X170845000Y-78470000D01*
D22*
X167656000Y-78470000D02*
X168783000Y-78470000D01*
X167656000Y-78470000D02*
X167259000Y-78867000D01*
X167259000Y-78867000D02*
X167259000Y-81026000D01*
X167259000Y-81026000D02*
X167640000Y-81407000D01*
X167640000Y-81407000D02*
X170815000Y-81407000D01*
X180848000Y-80010000D02*
X179451000Y-81407000D01*
X180848000Y-77851000D02*
X180848000Y-80010000D01*
X180467000Y-77470000D02*
X180848000Y-77851000D01*
X175006000Y-81831000D02*
X175979000Y-81831000D01*
X176546000Y-81264000D02*
X176546000Y-78470000D01*
X175979000Y-81831000D02*
X176546000Y-81264000D01*
D23*
X173325000Y-78470000D02*
X174355000Y-78470000D01*
D22*
X175387000Y-78470000D02*
X176546000Y-78470000D01*
D23*
X174355000Y-78470000D02*
X175387000Y-78470000D01*
D22*
X176898300Y-78117700D02*
X178054000Y-78117700D01*
X176546000Y-78470000D02*
X176898300Y-78117700D01*
X178054000Y-74549000D02*
X178054000Y-73533000D01*
X173271000Y-72771000D02*
X172593000Y-72093000D01*
X177292000Y-72771000D02*
X173271000Y-72771000D01*
X178054000Y-73533000D02*
X177292000Y-72771000D01*
X177038000Y-75057000D02*
X177546000Y-74549000D01*
X177546000Y-74549000D02*
X178054000Y-74549000D01*
D23*
X173325000Y-77970000D02*
X175387000Y-77970000D01*
D22*
X175387000Y-77970000D02*
X176030000Y-77970000D01*
X177038000Y-76962000D02*
X177038000Y-76200000D01*
X176030000Y-77970000D02*
X177038000Y-76962000D01*
X177038000Y-76200000D02*
X177038000Y-75057000D01*
X179806600Y-78765400D02*
X178054000Y-78765400D01*
X179832000Y-78740000D02*
X179806600Y-78765400D01*
D21*
X187871100Y-76060300D02*
X187871100Y-74752200D01*
X187871100Y-74752200D02*
X187883800Y-74739500D01*
D23*
X173325000Y-76470000D02*
X175387000Y-76470000D01*
D22*
X175387000Y-76470000D02*
X175625000Y-76470000D01*
X175625000Y-76470000D02*
X175641000Y-76454000D01*
D23*
X170845000Y-76970000D02*
X168783000Y-76970000D01*
D22*
X168783000Y-76970000D02*
X168402000Y-76970000D01*
X168402000Y-76970000D02*
X168394000Y-76962000D01*
X183642000Y-78105000D02*
X182676800Y-78105000D01*
X178308000Y-73025000D02*
X182092600Y-76809600D01*
X178308000Y-73025000D02*
X178308000Y-70612000D01*
X182092600Y-77520800D02*
X182092600Y-76809600D01*
X182676800Y-78105000D02*
X182092600Y-77520800D01*
X183642000Y-78765400D02*
X184429400Y-78765400D01*
X185191402Y-78003398D02*
X185191402Y-74726800D01*
X184429400Y-78765400D02*
X185191402Y-78003398D01*
X185191402Y-74726800D02*
X185191402Y-74676000D01*
X185191402Y-74726800D02*
X185191402Y-73888598D01*
X185191402Y-73888598D02*
X188468000Y-70612000D01*
M02*
