%FSLAX46Y46*%
G04 Gerber Fmt 4.6, Leading zero omitted, Abs format (unit mm)*
G04 Created by KiCad (PCBNEW (2014-jul-16 BZR unknown)-product) date Fri 27 Mar 2015 10:35:30 AM EDT*
%MOMM*%
G01*
G04 APERTURE LIST*
%ADD10C,0.100000*%
%ADD11C,0.127000*%
%ADD12C,0.150000*%
%ADD13C,0.203200*%
%ADD14C,0.158750*%
%ADD15C,0.160020*%
G04 APERTURE END LIST*
D10*
D11*
X190554428Y-72517000D02*
X190481857Y-72480714D01*
X190373000Y-72480714D01*
X190264143Y-72517000D01*
X190191571Y-72589571D01*
X190155286Y-72662143D01*
X190119000Y-72807286D01*
X190119000Y-72916143D01*
X190155286Y-73061286D01*
X190191571Y-73133857D01*
X190264143Y-73206429D01*
X190373000Y-73242714D01*
X190445571Y-73242714D01*
X190554428Y-73206429D01*
X190590714Y-73170143D01*
X190590714Y-72916143D01*
X190445571Y-72916143D01*
X190917286Y-73242714D02*
X190917286Y-72480714D01*
X191352714Y-73242714D01*
X191352714Y-72480714D01*
X191715572Y-73242714D02*
X191715572Y-72480714D01*
X191897000Y-72480714D01*
X192005857Y-72517000D01*
X192078429Y-72589571D01*
X192114714Y-72662143D01*
X192151000Y-72807286D01*
X192151000Y-72916143D01*
X192114714Y-73061286D01*
X192078429Y-73133857D01*
X192005857Y-73206429D01*
X191897000Y-73242714D01*
X191715572Y-73242714D01*
X184930143Y-73242714D02*
X184930143Y-72480714D01*
X185365571Y-73242714D01*
X185365571Y-72480714D01*
X186272714Y-72444429D02*
X185619571Y-73424143D01*
X186962143Y-73170143D02*
X186925857Y-73206429D01*
X186817000Y-73242714D01*
X186744429Y-73242714D01*
X186635572Y-73206429D01*
X186563000Y-73133857D01*
X186526715Y-73061286D01*
X186490429Y-72916143D01*
X186490429Y-72807286D01*
X186526715Y-72662143D01*
X186563000Y-72589571D01*
X186635572Y-72517000D01*
X186744429Y-72480714D01*
X186817000Y-72480714D01*
X186925857Y-72517000D01*
X186962143Y-72553286D01*
X188322857Y-73170143D02*
X188286571Y-73206429D01*
X188177714Y-73242714D01*
X188105143Y-73242714D01*
X187996286Y-73206429D01*
X187923714Y-73133857D01*
X187887429Y-73061286D01*
X187851143Y-72916143D01*
X187851143Y-72807286D01*
X187887429Y-72662143D01*
X187923714Y-72589571D01*
X187996286Y-72517000D01*
X188105143Y-72480714D01*
X188177714Y-72480714D01*
X188286571Y-72517000D01*
X188322857Y-72553286D01*
X188649429Y-73242714D02*
X188649429Y-72480714D01*
X189084857Y-73242714D02*
X188758286Y-72807286D01*
X189084857Y-72480714D02*
X188649429Y-72916143D01*
X182843715Y-73242714D02*
X182589715Y-72879857D01*
X182408287Y-73242714D02*
X182408287Y-72480714D01*
X182698572Y-72480714D01*
X182771144Y-72517000D01*
X182807429Y-72553286D01*
X182843715Y-72625857D01*
X182843715Y-72734714D01*
X182807429Y-72807286D01*
X182771144Y-72843571D01*
X182698572Y-72879857D01*
X182408287Y-72879857D01*
X183134001Y-73206429D02*
X183242858Y-73242714D01*
X183424287Y-73242714D01*
X183496858Y-73206429D01*
X183533144Y-73170143D01*
X183569429Y-73097571D01*
X183569429Y-73025000D01*
X183533144Y-72952429D01*
X183496858Y-72916143D01*
X183424287Y-72879857D01*
X183279144Y-72843571D01*
X183206572Y-72807286D01*
X183170287Y-72771000D01*
X183134001Y-72698429D01*
X183134001Y-72625857D01*
X183170287Y-72553286D01*
X183206572Y-72517000D01*
X183279144Y-72480714D01*
X183460572Y-72480714D01*
X183569429Y-72517000D01*
X183787143Y-72480714D02*
X184222572Y-72480714D01*
X184004858Y-73242714D02*
X184004858Y-72480714D01*
X176911001Y-73242714D02*
X176911001Y-72480714D01*
X177092429Y-72480714D01*
X177201286Y-72517000D01*
X177273858Y-72589571D01*
X177310143Y-72662143D01*
X177346429Y-72807286D01*
X177346429Y-72916143D01*
X177310143Y-73061286D01*
X177273858Y-73133857D01*
X177201286Y-73206429D01*
X177092429Y-73242714D01*
X176911001Y-73242714D01*
X177636715Y-73025000D02*
X177999572Y-73025000D01*
X177564143Y-73242714D02*
X177818143Y-72480714D01*
X178072143Y-73242714D01*
X178217286Y-72480714D02*
X178652715Y-72480714D01*
X178435001Y-73242714D02*
X178435001Y-72480714D01*
X178870429Y-73025000D02*
X179233286Y-73025000D01*
X178797857Y-73242714D02*
X179051857Y-72480714D01*
X179305857Y-73242714D01*
X179922714Y-72480714D02*
X180176714Y-73242714D01*
X180430714Y-72480714D01*
X180575857Y-72480714D02*
X181011286Y-72480714D01*
X180793572Y-73242714D02*
X180793572Y-72480714D01*
X181664428Y-72517000D02*
X181591857Y-72480714D01*
X181483000Y-72480714D01*
X181374143Y-72517000D01*
X181301571Y-72589571D01*
X181265286Y-72662143D01*
X181229000Y-72807286D01*
X181229000Y-72916143D01*
X181265286Y-73061286D01*
X181301571Y-73133857D01*
X181374143Y-73206429D01*
X181483000Y-73242714D01*
X181555571Y-73242714D01*
X181664428Y-73206429D01*
X181700714Y-73170143D01*
X181700714Y-72916143D01*
X181555571Y-72916143D01*
D12*
X181649000Y-82672300D02*
X181649000Y-83672300D01*
X183349000Y-83672300D02*
X183349000Y-82672300D01*
X184163600Y-82621500D02*
X184163600Y-83621500D01*
X185863600Y-83621500D02*
X185863600Y-82621500D01*
D13*
X179070000Y-79883000D02*
X179070000Y-75057000D01*
X179070000Y-75057000D02*
X182626000Y-75057000D01*
X182626000Y-75057000D02*
X182626000Y-79883000D01*
X182626000Y-79883000D02*
X179070000Y-79883000D01*
X182372000Y-79248000D02*
G75*
G03X182372000Y-79248000I-381000J0D01*
G74*
G01*
D12*
X168097200Y-77470000D02*
X168097200Y-65278000D01*
X168097200Y-65278000D02*
X162153600Y-65278000D01*
X116890800Y-77470000D02*
X116890800Y-65278000D01*
X116890800Y-65278000D02*
X162153600Y-65278000D01*
X116890800Y-77470000D02*
X116890800Y-89662000D01*
X116890800Y-89662000D02*
X162179000Y-89662000D01*
X163169600Y-89662000D02*
X168097200Y-89662000D01*
X168097200Y-77470000D02*
X168097200Y-89636600D01*
X142494000Y-77470000D02*
X116890800Y-77470000D01*
X116890800Y-77470000D02*
X116890800Y-77241400D01*
X142494000Y-77470000D02*
X168097200Y-77470000D01*
X162179000Y-89662000D02*
X163195000Y-89662000D01*
X142494000Y-86106000D02*
X142494000Y-86233000D01*
X166370000Y-77470000D02*
X142494000Y-77470000D01*
X171918000Y-71493000D02*
X171918000Y-70493000D01*
X173268000Y-70493000D02*
X173268000Y-71493000D01*
X175681000Y-82431000D02*
X175681000Y-83431000D01*
X174331000Y-83431000D02*
X174331000Y-82431000D01*
X173325000Y-74320000D02*
X170825000Y-74320000D01*
X173325000Y-80620000D02*
X170825000Y-80620000D01*
X168435000Y-76470000D02*
X168435000Y-78470000D01*
X175735000Y-76470000D02*
X175735000Y-78470000D01*
X170958178Y-75620000D02*
G75*
G03X170958178Y-75620000I-143178J0D01*
G74*
G01*
X173585000Y-75970000D02*
X173585000Y-78970000D01*
X173585000Y-78970000D02*
X170585000Y-78970000D01*
X170585000Y-78970000D02*
X170585000Y-75970000D01*
X170585000Y-75970000D02*
X173585000Y-75970000D01*
X179578000Y-69342000D02*
X192278000Y-69342000D01*
X192278000Y-69342000D02*
X192278000Y-71882000D01*
X192278000Y-71882000D02*
X179578000Y-71882000D01*
X176758000Y-69062000D02*
X178308000Y-69062000D01*
X179578000Y-69342000D02*
X179578000Y-71882000D01*
X178308000Y-72162000D02*
X176758000Y-72162000D01*
X176758000Y-72162000D02*
X176758000Y-69062000D01*
X187426600Y-76314300D02*
X187426600Y-76949300D01*
X187426600Y-76949300D02*
X186410600Y-76949300D01*
X186410600Y-75171300D02*
X187426600Y-75171300D01*
X187426600Y-75171300D02*
X187426600Y-75806300D01*
X187553600Y-76314300D02*
X187426600Y-76314300D01*
X187426600Y-75806300D02*
X187553600Y-75806300D01*
X186410600Y-76949300D02*
X186410600Y-75171300D01*
X187553600Y-75806300D02*
X187553600Y-76314300D01*
X181078143Y-83338966D02*
X181125762Y-83386585D01*
X181173381Y-83529442D01*
X181173381Y-83624680D01*
X181125762Y-83767538D01*
X181030524Y-83862776D01*
X180935286Y-83910395D01*
X180744810Y-83958014D01*
X180601952Y-83958014D01*
X180411476Y-83910395D01*
X180316238Y-83862776D01*
X180221000Y-83767538D01*
X180173381Y-83624680D01*
X180173381Y-83529442D01*
X180221000Y-83386585D01*
X180268619Y-83338966D01*
X181173381Y-82386585D02*
X181173381Y-82958014D01*
X181173381Y-82672300D02*
X180173381Y-82672300D01*
X180316238Y-82767538D01*
X180411476Y-82862776D01*
X180459095Y-82958014D01*
X187148743Y-84723266D02*
X187196362Y-84770885D01*
X187243981Y-84913742D01*
X187243981Y-85008980D01*
X187196362Y-85151838D01*
X187101124Y-85247076D01*
X187005886Y-85294695D01*
X186815410Y-85342314D01*
X186672552Y-85342314D01*
X186482076Y-85294695D01*
X186386838Y-85247076D01*
X186291600Y-85151838D01*
X186243981Y-85008980D01*
X186243981Y-84913742D01*
X186291600Y-84770885D01*
X186339219Y-84723266D01*
X186339219Y-84342314D02*
X186291600Y-84294695D01*
X186243981Y-84199457D01*
X186243981Y-83961361D01*
X186291600Y-83866123D01*
X186339219Y-83818504D01*
X186434457Y-83770885D01*
X186529695Y-83770885D01*
X186672552Y-83818504D01*
X187243981Y-84389933D01*
X187243981Y-83770885D01*
D14*
X180228119Y-74766714D02*
X180228119Y-74004714D01*
X180893358Y-74694143D02*
X180863120Y-74730429D01*
X180772405Y-74766714D01*
X180711929Y-74766714D01*
X180621215Y-74730429D01*
X180560739Y-74657857D01*
X180530500Y-74585286D01*
X180500262Y-74440143D01*
X180500262Y-74331286D01*
X180530500Y-74186143D01*
X180560739Y-74113571D01*
X180621215Y-74041000D01*
X180711929Y-74004714D01*
X180772405Y-74004714D01*
X180863120Y-74041000D01*
X180893358Y-74077286D01*
X181498120Y-74766714D02*
X181135262Y-74766714D01*
X181316691Y-74766714D02*
X181316691Y-74004714D01*
X181256215Y-74113571D01*
X181195739Y-74186143D01*
X181135262Y-74222429D01*
D15*
D12*
X171521381Y-71032666D02*
X171045190Y-71366000D01*
X171521381Y-71604095D02*
X170521381Y-71604095D01*
X170521381Y-71223142D01*
X170569000Y-71127904D01*
X170616619Y-71080285D01*
X170711857Y-71032666D01*
X170854714Y-71032666D01*
X170949952Y-71080285D01*
X170997571Y-71127904D01*
X171045190Y-71223142D01*
X171045190Y-71604095D01*
X171521381Y-70080285D02*
X171521381Y-70651714D01*
X171521381Y-70366000D02*
X170521381Y-70366000D01*
X170664238Y-70461238D01*
X170759476Y-70556476D01*
X170807095Y-70651714D01*
X176982381Y-83097666D02*
X176506190Y-83431000D01*
X176982381Y-83669095D02*
X175982381Y-83669095D01*
X175982381Y-83288142D01*
X176030000Y-83192904D01*
X176077619Y-83145285D01*
X176172857Y-83097666D01*
X176315714Y-83097666D01*
X176410952Y-83145285D01*
X176458571Y-83192904D01*
X176506190Y-83288142D01*
X176506190Y-83669095D01*
X176077619Y-82716714D02*
X176030000Y-82669095D01*
X175982381Y-82573857D01*
X175982381Y-82335761D01*
X176030000Y-82240523D01*
X176077619Y-82192904D01*
X176172857Y-82145285D01*
X176268095Y-82145285D01*
X176410952Y-82192904D01*
X176982381Y-82764333D01*
X176982381Y-82145285D01*
X171601190Y-79154262D02*
X171601190Y-79668310D01*
X171631429Y-79728786D01*
X171661667Y-79759024D01*
X171722143Y-79789262D01*
X171843095Y-79789262D01*
X171903571Y-79759024D01*
X171933810Y-79728786D01*
X171964048Y-79668310D01*
X171964048Y-79154262D01*
X172599048Y-79789262D02*
X172236190Y-79789262D01*
X172417619Y-79789262D02*
X172417619Y-79154262D01*
X172357143Y-79244976D01*
X172296667Y-79305452D01*
X172236190Y-79335690D01*
X176474381Y-71604095D02*
X175474381Y-71604095D01*
X175474381Y-71223142D01*
X175522000Y-71127904D01*
X175569619Y-71080285D01*
X175664857Y-71032666D01*
X175807714Y-71032666D01*
X175902952Y-71080285D01*
X175950571Y-71127904D01*
X175998190Y-71223142D01*
X175998190Y-71604095D01*
X175569619Y-70651714D02*
X175522000Y-70604095D01*
X175474381Y-70508857D01*
X175474381Y-70270761D01*
X175522000Y-70175523D01*
X175569619Y-70127904D01*
X175664857Y-70080285D01*
X175760095Y-70080285D01*
X175902952Y-70127904D01*
X176474381Y-70699333D01*
X176474381Y-70080285D01*
X187509162Y-77738219D02*
X187413924Y-77690600D01*
X187318686Y-77595362D01*
X187175829Y-77452505D01*
X187080590Y-77404886D01*
X186985352Y-77404886D01*
X187032971Y-77642981D02*
X186937733Y-77595362D01*
X186842495Y-77500124D01*
X186794876Y-77309648D01*
X186794876Y-76976314D01*
X186842495Y-76785838D01*
X186937733Y-76690600D01*
X187032971Y-76642981D01*
X187223448Y-76642981D01*
X187318686Y-76690600D01*
X187413924Y-76785838D01*
X187461543Y-76976314D01*
X187461543Y-77309648D01*
X187413924Y-77500124D01*
X187318686Y-77595362D01*
X187223448Y-77642981D01*
X187032971Y-77642981D01*
X188413924Y-77642981D02*
X187842495Y-77642981D01*
X188128209Y-77642981D02*
X188128209Y-76642981D01*
X188032971Y-76785838D01*
X187937733Y-76881076D01*
X187842495Y-76928695D01*
M02*
