%FSLAX46Y46*%
G04 Gerber Fmt 4.6, Leading zero omitted, Abs format (unit mm)*
G04 Created by KiCad (PCBNEW (2014-jul-16 BZR unknown)-product) date Fri 27 Mar 2015 10:35:30 AM EDT*
%MOMM*%
G01*
G04 APERTURE LIST*
%ADD10C,0.100000*%
%ADD11R,1.250000X1.500000*%
%ADD12R,1.300480X0.299720*%
%ADD13C,2.032000*%
%ADD14C,1.651000*%
%ADD15R,0.900000X1.200000*%
%ADD16R,0.825000X0.300000*%
%ADD17R,1.727200X2.032000*%
%ADD18O,1.727200X2.032000*%
%ADD19R,1.000760X0.822960*%
G04 APERTURE END LIST*
D10*
D11*
X182499000Y-84422300D03*
X182499000Y-81922300D03*
X185013600Y-84371500D03*
X185013600Y-81871500D03*
D12*
X183642000Y-79400400D03*
X183642000Y-78765400D03*
X183642000Y-78105000D03*
X183642000Y-77470000D03*
X183642000Y-76809600D03*
X183642000Y-76161900D03*
X183642000Y-75514200D03*
X178054000Y-75514200D03*
X178054000Y-76161900D03*
X178054000Y-76809600D03*
X178054000Y-77470000D03*
X178054000Y-78117700D03*
X178054000Y-78765400D03*
X178054000Y-79413100D03*
D13*
X166370000Y-83820000D03*
X166370000Y-71120000D03*
D14*
X142494000Y-86233000D03*
X142494000Y-68707000D03*
D15*
X172593000Y-69893000D03*
X172593000Y-72093000D03*
X175006000Y-84031000D03*
X175006000Y-81831000D03*
D16*
X173325000Y-76470000D03*
X173325000Y-76970000D03*
X173325000Y-77470000D03*
X173325000Y-77970000D03*
X173325000Y-78470000D03*
X170845000Y-78470000D03*
X170845000Y-77970000D03*
X170845000Y-77470000D03*
X170845000Y-76970000D03*
X170845000Y-76470000D03*
D14*
X169164000Y-69850000D03*
X169164000Y-85090000D03*
D17*
X178308000Y-70612000D03*
D18*
X180848000Y-70612000D03*
X183388000Y-70612000D03*
X185928000Y-70612000D03*
X188468000Y-70612000D03*
X191008000Y-70612000D03*
D19*
X186095640Y-77012800D03*
X186095640Y-75107800D03*
X187871100Y-76060300D03*
M02*
